<svg width="24" height="22" viewBox="0 0 24 22" fill="none" xmlns="http://www.w3.org/2000/svg">
<path fill-rule="evenodd" clip-rule="evenodd" d="M17.9984 2.41007e-05C18.449 -0.00172573 18.8954 0.0918256 19.3121 0.275303C19.7293 0.459041 20.1084 0.729324 20.4275 1.07056C20.7465 1.41179 20.9993 1.81721 21.1711 2.26344C21.3426 2.70897 21.4301 3.18637 21.4285 3.66818L21.4285 3.67043L20.5714 3.66659H21.4285V3.66818V16.4996C21.4285 17.0058 21.0447 17.4162 20.5714 17.4162C20.098 17.4162 19.7143 17.0058 19.7143 16.4996V3.66659L19.7143 3.66274C19.7152 3.42221 19.6716 3.18387 19.586 2.96145C19.5003 2.73904 19.3744 2.53696 19.2153 2.36688C19.0563 2.1968 18.8674 2.06208 18.6594 1.9705C18.4514 1.87892 18.2286 1.83229 18.0037 1.8333L18.0001 1.83331H3.42939C2.95603 1.83331 2.57229 1.42291 2.57229 0.916665C2.57229 0.410418 2.95603 2.41007e-05 3.42939 2.41007e-05H17.9984ZM17.9984 2.41007e-05L17.9965 3.21322e-05L18.0001 0.916665V2.41007e-05H17.9984Z" fill="#E1E1E6"/>
<path fill-rule="evenodd" clip-rule="evenodd" d="M9.42789 8.25258C9.42789 7.74633 9.81163 7.33594 10.285 7.33594H17.1418C17.6151 7.33594 17.9989 7.74633 17.9989 8.25258C17.9989 8.75883 17.6151 9.16922 17.1418 9.16922H10.285C9.81163 9.16922 9.42789 8.75883 9.42789 8.25258Z" fill="#E1E1E6"/>
<path fill-rule="evenodd" clip-rule="evenodd" d="M9.42789 11.9205C9.42789 11.4143 9.81163 11.0039 10.285 11.0039H17.1418C17.6151 11.0039 17.9989 11.4143 17.9989 11.9205C17.9989 12.4268 17.6151 12.8372 17.1418 12.8372H10.285C9.81163 12.8372 9.42789 12.4268 9.42789 11.9205Z" fill="#E1E1E6"/>
<path fill-rule="evenodd" clip-rule="evenodd" d="M3.63188 1.84646C3.35607 1.8112 3.07638 1.84814 2.81688 1.95412C2.55738 2.0601 2.32585 2.23193 2.14222 2.45482C1.95858 2.67772 1.82835 2.945 1.76272 3.23367C1.6971 3.52233 1.69805 3.82372 1.76549 4.1119C1.83294 4.40009 1.96485 4.66642 2.14989 4.88799C2.46521 5.26556 2.43463 5.84503 2.08158 6.18225C1.72853 6.51948 1.18671 6.48677 0.871383 6.1092C0.501314 5.66607 0.237479 5.13339 0.102591 4.55703C-0.032297 3.98066 -0.0341984 3.37787 0.0970512 2.80055C0.228301 2.22323 0.488769 1.68866 0.856035 1.24287C1.2233 0.797076 1.68636 0.453413 2.20536 0.24146C2.72436 0.0295066 3.28374 -0.0443858 3.83537 0.0261423C4.38699 0.0966703 4.91432 0.309506 5.37197 0.646329C5.82963 0.983153 6.20389 1.43387 6.46254 1.95969C6.7212 2.48551 6.85649 3.07068 6.85679 3.66482V18.3311C6.85694 18.6281 6.92459 18.9207 7.05392 19.1836C7.18324 19.4466 7.37037 19.6719 7.5992 19.8403C7.82803 20.0087 8.09169 20.1152 8.3675 20.1504C8.64331 20.1857 8.92301 20.1487 9.18251 20.0428C9.44201 19.9368 9.67354 19.7649 9.85717 19.5421C10.0408 19.3192 10.171 19.0519 10.2367 18.7632C10.3023 18.4745 10.3013 18.1732 10.2339 17.885C10.1664 17.5968 10.0345 17.3305 9.84949 17.1089C9.62442 16.8394 9.5684 16.4536 9.70645 16.1238C9.84451 15.7939 10.1509 15.5816 10.4887 15.5816H22.4881C22.732 15.5816 22.9644 15.6928 23.127 15.8872C23.5683 16.4149 23.8573 17.0679 23.9592 17.7674C24.061 18.4669 23.9713 19.183 23.701 19.8292C23.4306 20.4754 22.991 21.0241 22.4354 21.409C21.8799 21.7938 21.2322 21.9984 20.5704 21.9981H8.57099C8.55197 21.9981 8.53309 21.9975 8.51438 21.9962C8.39755 21.9941 8.28061 21.9856 8.16402 21.9707C7.6124 21.9002 7.08506 21.6874 6.62741 21.3505C6.16976 21.0137 5.7955 20.563 5.53684 20.0372C5.27819 19.5114 5.14289 18.9262 5.14259 18.3321V3.6658C5.14245 3.36873 5.0748 3.07615 4.94547 2.81324C4.81614 2.55033 4.62901 2.32497 4.40018 2.15656C4.17136 1.98814 3.90769 1.88173 3.63188 1.84646ZM11.5393 20.1648H20.5704C20.9014 20.165 21.2257 20.0627 21.5035 19.8703C21.7813 19.6778 22.0011 19.4035 22.1363 19.0804C22.2715 18.7573 22.3163 18.3992 22.2654 18.0495C22.2327 17.8249 22.1614 17.6099 22.0561 17.4149H11.8909C11.8929 17.4232 11.8948 17.4315 11.8968 17.4398C12.0317 18.0162 12.0336 18.619 11.9023 19.1963C11.8248 19.5372 11.7023 19.8632 11.5393 20.1648Z" fill="#E1E1E6"/>
</svg>
